<svg width="48" height="49" viewBox="0 0 48 49" fill="none" xmlns="http://www.w3.org/2000/svg">
<circle cx="24" cy="24.5" r="24" fill="#F4F4F4"/>
<g clip-path="url(#clip0_2_8652)">
<path d="M24.4764 36.0276C24.4764 36.2879 24.2643 36.5 24.0035 36.5C23.7432 36.5 23.5311 36.2879 23.5311 36.0276C23.5311 35.7672 23.7432 35.5551 24.0035 35.5551C24.2643 35.5551 24.4764 35.7672 24.4764 36.0276ZM14.078 36.0276V35.4299C14.078 32.2801 16.2144 30.5624 17.1498 30.0016C18.4203 29.2405 19.7849 28.665 21.2119 28.2869V27.5263C20.974 27.3163 20.7564 27.0774 20.5643 26.8113C19.9984 26.0275 19.5365 25.1778 19.1884 24.2806C18.8698 24.2371 18.5786 24.0344 18.4288 23.7173C18.286 23.4149 17.2953 21.5823 17.1435 21.2562C16.7587 20.4294 17.2617 19.6126 17.8992 19.3496C18.0054 19.3058 18.1145 19.2734 18.2255 19.255C18.1223 18.8326 18.0701 18.3983 18.0701 17.9567C18.0701 14.9479 20.518 12.5 23.5268 12.5C24.0556 12.5 24.5564 12.7023 24.9369 13.0695C24.9409 13.0734 24.9473 13.0734 24.9514 13.0695C25.332 12.7023 25.8327 12.5 26.3615 12.5C28.4064 12.5 30.0701 14.1637 30.0701 16.2087V17.069C30.0701 17.8099 29.9684 18.5391 29.7677 19.246C29.8811 19.2644 29.9944 19.294 30.1018 19.3426C30.8862 19.6978 31.1926 20.5757 30.8574 21.2492C30.6972 21.5712 29.715 23.4078 29.5721 23.7103C29.4224 24.0272 29.1313 24.23 28.8129 24.2736C28.4646 25.1729 28.0021 26.0247 27.4351 26.8101C27.2426 27.0766 27.0249 27.3158 26.7867 27.526V28.2869C28.2136 28.665 29.5783 29.2404 30.8487 30.0015C31.7842 30.5623 33.9205 32.28 33.9205 35.4299V36.0276C33.9205 36.2885 33.709 36.5 33.4481 36.5H26.1305C26.13 36.5 26.13 36.5 26.1295 36.5C25.8588 36.5 25.6401 36.271 25.6581 35.996C25.6746 35.7449 25.8945 35.5551 26.1461 35.5551H32.9757C32.9757 33.5602 31.9746 31.778 30.3626 30.8123C29.2246 30.1304 28.0059 29.6063 26.7326 29.251C26.4779 30.5273 25.3493 31.4921 23.9993 31.4921C22.6493 31.4921 21.5206 30.5273 21.266 29.251C19.9929 29.6063 18.7739 30.1304 17.636 30.8123C16.024 31.778 15.0229 33.5053 15.0229 35.5551H21.878C22.1492 35.5551 22.3676 35.7853 22.3489 36.0604C22.3318 36.311 22.1121 36.5 21.8609 36.5H14.5505C14.2895 36.5 14.078 36.2885 14.078 36.0276ZM19.0167 18.0291C19.0603 17.9779 19.7123 17.1772 20.8343 17.1772C21.3939 17.1772 21.9314 17.3722 22.3571 17.7199C22.7492 18.0402 23.2485 18.2165 23.7631 18.2165C24.9807 18.2165 25.9561 17.2372 25.9836 15.987C25.9893 15.7303 26.199 15.525 26.4559 15.525C26.7127 15.5249 26.9225 15.7301 26.9283 15.9869C26.9419 16.5902 27.2666 17.1133 27.7758 17.3521C28.2767 17.587 28.6958 17.9426 29.0031 18.3777C29.0844 17.9481 29.1253 17.5109 29.1253 17.0691V16.2087C29.1253 14.6847 27.8855 13.4449 26.3615 13.4449C26.0788 13.4449 25.8111 13.553 25.6076 13.7494C25.2356 14.1085 24.6528 14.1085 24.2807 13.7494C24.0773 13.553 23.8095 13.4449 23.5268 13.4449C21.039 13.4449 18.9929 15.4428 19.0167 18.0291ZM25.8418 28.1554C24.7232 28.6834 23.4308 28.7444 22.1568 28.1556V28.7047C22.1568 29.7207 22.9833 30.5472 23.9993 30.5472C25.0153 30.5472 25.8418 29.7207 25.8418 28.7047V28.1554ZM26.6689 26.2571C27.255 25.4454 27.7196 24.5566 28.0487 23.6152C28.1065 23.45 28.3259 23.2 28.6978 23.3463C28.8731 22.973 29.86 21.148 30.0031 20.8456C30.1121 20.6153 29.9803 20.3154 29.7326 20.2124C29.5927 20.1542 29.4379 20.1644 29.3019 20.2339C29.0087 20.3837 28.646 20.2069 28.6086 19.8828C28.5236 19.1471 28.0466 18.5228 27.3746 18.2076C27.0349 18.0483 26.7452 17.8146 26.5195 17.5287C26.3774 17.7844 26.1928 18.0146 25.9902 18.2329C25.0935 19.1995 23.2189 19.6293 21.7594 18.4518C21.19 17.9924 20.3432 18.02 19.8207 18.55C19.5365 18.8384 19.3694 19.2276 19.3694 19.6252V19.8112C19.3709 20.1582 19.0021 20.3899 18.685 20.2335C18.5536 20.1687 18.4035 20.1658 18.2684 20.2195C18.0541 20.3045 17.8712 20.5819 17.9979 20.8527C18.1396 21.1558 19.1483 23.0081 19.2977 23.3464C19.7138 23.2016 19.909 23.4988 19.9523 23.622C20.2817 24.5612 20.7454 25.4481 21.3303 26.2582C21.9594 27.1294 22.9322 27.6291 23.9991 27.629C25.0665 27.6288 26.0397 27.1288 26.6689 26.2571ZM34.1568 15.3346V12.9724C34.1568 12.7115 33.9452 12.5 33.6843 12.5H31.3221C31.0612 12.5 30.8497 12.7115 30.8497 12.9724C30.8497 13.2334 31.0612 13.4449 31.3221 13.4449H33.2119V15.3346C33.2119 15.5956 33.4234 15.8071 33.6843 15.8071C33.9452 15.8071 34.1568 15.5956 34.1568 15.3346ZM34.1568 28.2323V25.8701C34.1568 25.6091 33.9452 25.3976 33.6843 25.3976C33.4234 25.3976 33.2119 25.6091 33.2119 25.8701V27.7598H31.3221C31.0612 27.7598 30.8497 27.9714 30.8497 28.2323C30.8497 28.4932 31.0612 28.7047 31.3221 28.7047H33.6843C33.9452 28.7047 34.1568 28.4932 34.1568 28.2323ZM14.7867 15.3346V13.4449H16.6764C16.9374 13.4449 17.1489 13.2334 17.1489 12.9724C17.1489 12.7115 16.9374 12.5 16.6764 12.5H14.3142C14.0533 12.5 13.8418 12.7115 13.8418 12.9724V15.3346C13.8418 15.5956 14.0533 15.8071 14.3142 15.8071C14.5752 15.8071 14.7867 15.5956 14.7867 15.3346ZM17.1489 28.2323C17.1489 27.9714 16.9374 27.7598 16.6764 27.7598H14.7867V25.8701C14.7867 25.6091 14.5752 25.3976 14.3142 25.3976C14.0533 25.3976 13.8418 25.6091 13.8418 25.8701V28.2323C13.8418 28.4932 14.0533 28.7047 14.3142 28.7047H16.6764C16.9374 28.7047 17.1489 28.4932 17.1489 28.2323Z" fill="#111315"/>
</g>
<defs>
<clipPath id="clip0_2_8652">
<rect width="24" height="24" fill="white" transform="translate(12 12.5)"/>
</clipPath>
</defs>
</svg>
