<svg width="24" height="24" viewBox="0 0 24 24" fill="none" xmlns="http://www.w3.org/2000/svg">
<path d="M8.51409 2.92969C6.0291 2.92969 4.0141 4.94439 4.0141 7.42969C4.0141 9.91499 6.0291 11.9297 8.51409 11.9297C10.9991 11.9297 13.0141 9.91499 13.0141 7.42969C13.0141 4.94439 10.9991 2.92969 8.51409 2.92969ZM8.51409 4.92969C9.89509 4.92969 11.0141 6.04899 11.0141 7.42969C11.0141 8.81039 9.89509 9.92959 8.51409 9.92969C7.13309 9.92969 6.0141 8.81039 6.0141 7.42969C6.0141 6.04899 7.13309 4.92979 8.51409 4.92969ZM17.0141 7.92969C16.7581 7.92969 16.4911 8.01569 16.2951 8.21089C15.9051 8.60149 15.9051 9.25789 16.2951 9.64849L17.5761 10.9297L16.2951 12.2109C15.9051 12.6015 15.9051 13.2579 16.2951 13.6485C16.6861 14.039 17.3421 14.039 17.7331 13.6485L19.0141 12.3672L20.2951 13.6485C20.6861 14.039 21.3421 14.039 21.7331 13.6485C22.1231 13.2579 22.1231 12.6015 21.7331 12.2109L20.4521 10.9297L21.7331 9.64849C22.1231 9.25789 22.1231 8.60149 21.7331 8.21089C21.5371 8.01569 21.2701 7.92969 21.0141 7.92969C20.7581 7.92969 20.4911 8.01569 20.2951 8.21089L19.0141 9.49219L17.7331 8.21089C17.5371 8.01569 17.2701 7.92969 17.0141 7.92969ZM5.07611 13.2735C3.24211 14.0303 2.0141 15.8858 2.0141 17.9297V19.9297C2.0141 20.482 2.4621 20.9297 3.0141 20.9297H14.0141C14.5661 20.9297 15.0141 20.482 15.0141 19.9297V17.9297C15.0141 15.9339 13.7791 14.1234 11.9521 13.3359C11.6941 13.2251 11.3951 13.2217 11.1391 13.3359C10.2541 13.7325 9.39209 13.9295 8.51409 13.9297C7.63909 13.9297 6.77409 13.7217 5.85809 13.3047C5.60609 13.1901 5.33211 13.1682 5.07611 13.2735ZM5.45208 15.3047C6.39608 15.6632 7.54509 15.9299 8.51409 15.9297C9.47509 15.9297 10.5571 15.7093 11.4831 15.3672C12.3851 15.882 13.0141 16.829 13.0141 17.9297V18.9297H4.0141V17.9297C4.0141 16.765 4.66008 15.7682 5.45208 15.3047Z" fill="#6A7282"/>
</svg>
